<svg width="100" height="100" viewBox="0 0 100 100" fill="none" xmlns="http://www.w3.org/2000/svg">
<path d="M54.2615 77.7574L50.3735 80.0134V81.6934H54.2615V83.9014H43.0615V79.4214C43.0615 78.3867 43.4241 77.5067 44.1495 76.7814C44.8748 76.0561 45.7495 75.6934 46.7735 75.6934C47.4668 75.6934 48.1121 75.8907 48.7095 76.2854C49.2961 76.6801 49.7388 77.2027 50.0375 77.8534L54.2615 75.3734V77.7574ZM45.1255 81.6934H48.4375V79.4214C48.4375 79.0054 48.2775 78.6481 47.9575 78.3494C47.6268 78.0507 47.2321 77.9014 46.7735 77.9014C46.3148 77.9014 45.9255 78.0507 45.6055 78.3494C45.2855 78.6481 45.1255 79.0054 45.1255 79.4214V81.6934ZM54.4855 69.9754C54.4855 71.2234 54.1335 72.2474 53.4295 73.0474C52.7255 73.8474 51.7815 74.2474 50.5975 74.2474H43.0615V72.0554H50.4215C51.0081 72.0554 51.4721 71.8901 51.8135 71.5594C52.1548 71.2181 52.3255 70.6901 52.3255 69.9754C52.3255 69.2607 52.1548 68.7381 51.8135 68.4074C51.4721 68.0661 51.0081 67.8954 50.4215 67.8954H43.0615V65.6874H50.5975C51.7815 65.6874 52.7255 66.0874 53.4295 66.8874C54.1335 67.6874 54.4855 68.7167 54.4855 69.9754Z" fill="#828282"/>
<path d="M57.4615 59.6983H42.7415V57.6343H57.4615V59.6983ZM52.1495 49.3497V44.6297H54.2615V51.5577H43.0615V44.7097H45.1735V49.3497H47.5575V45.1097H49.6375V49.3497H52.1495ZM43.0615 36.5933V34.3853H54.2615V36.0653L47.4135 40.8653H54.2615V43.0733H43.0615V41.3933L49.8935 36.5933H43.0615ZM48.2455 21.3157H49.1095C50.7095 21.3157 52.0055 21.8277 52.9975 22.8517C53.9895 23.8757 54.4855 25.1983 54.4855 26.8197C54.4855 28.5477 53.9255 29.9823 52.8055 31.1237C51.6748 32.2543 50.2988 32.8197 48.6775 32.8197C47.0455 32.8197 45.6641 32.2597 44.5335 31.1397C43.4028 30.009 42.8375 28.6117 42.8375 26.9477C42.8375 25.9023 43.0775 24.9477 43.5575 24.0837C44.0268 23.2197 44.6561 22.5477 45.4455 22.0677L46.5335 23.9557C46.0748 24.2223 45.7015 24.6277 45.4135 25.1717C45.1255 25.705 44.9815 26.3023 44.9815 26.9637C44.9815 28.0303 45.3335 28.9103 46.0375 29.6037C46.7308 30.2863 47.6108 30.6277 48.6775 30.6277C49.7335 30.6277 50.6081 30.281 51.3015 29.5877C51.9841 28.8837 52.3255 27.9557 52.3255 26.8037C52.3255 25.9503 52.1388 25.2463 51.7655 24.6917C51.3815 24.1263 50.8588 23.7423 50.1975 23.5397V26.9317H48.2455V21.3157Z" fill="black"/>
</svg>
